# xmcd
#
# Track frame offsets:
# 150
# 20610
# 42450
# 68487
# 84870
# 112062
# 132547
# 146260
# 169427
# 189170
# 211575
# 233270
# 257760
#
# Disc length: 4056 seconds
#
# Revision: 0
# Processed by: cddbd v1.4PL0 Copyright (c) Steve Scherf et al.
# Submitted via: Axialis_AX_CDPlayer 2.6
#
DISCID=a80fd60d
DTITLE=Various Artist - Rhythm Room Blues
DYEAR=1900
DGENRE=
TTITLE0=Kim Wilson - Eyesight to the Blind
TTITLE1=R.L.Burnside - Rollin' and Tumblin'
TTITLE2=Sonny Rhodes - Livin' Too Close to the Edge
TTITLE3=Henry Gray - Sinner's Prayer
TTITLE4=Sam Lay - How'd You Learn to Shake it Like That?
TTITLE5=R.L.Burnside - Long Haired Doney
TTITLE6=Henry Gray - Henry's Houserocker
TTITLE7=Mojo Buford - In My Younger Days
TTITLE8=R.L.Burnside - Nightmare Blues
TTITLE9=Nappy Brown - Lemon Squeezin' Daddy
TTITLE10=R.L Burnside - Goin' Down South
TTITLE11=Sam Lay - I'm Gonna Shoot Her
TTITLE12=Kim Wilson - Five Long Years
EXTD=HCD8139
EXTT0=
EXTT1=
EXTT2=
EXTT3=
EXTT4=
EXTT5=
EXTT6=
EXTT7=
EXTT8=
EXTT9=
EXTT10=
EXTT11=
EXTT12=
PLAYORDER=
